<?xml version="1.0" encoding="UTF-8" standalone="no"?><!DOCTYPE svg PUBLIC "-//W3C//DTD SVG 1.1//EN" "http://www.w3.org/Graphics/SVG/1.1/DTD/svg11.dtd"><svg width="100%" height="100%" viewBox="0 0 16000 9000" version="1.1" xmlns="http://www.w3.org/2000/svg" xmlns:xlink="http://www.w3.org/1999/xlink" xml:space="preserve" xmlns:serif="http://www.serif.com/" style="fill-rule:evenodd;clip-rule:evenodd;stroke-linecap:square;stroke-linejoin:round;stroke-miterlimit:1.5;"><rect x="0" y="0" width="16000" height="9000"/><rect x="1952.34" y="581.227" width="3903.12" height="6628.08" style="fill:#111e10;"/><rect x="11209.6" y="581.227" width="3903.12" height="6628.08" style="fill:#1e1010;"/><path d="M1985.58,7176.16l-0,-6561.6" style="fill:none;stroke:#fff;stroke-width:66.67px;"/><path d="M2892.61,614.561c0,3114.84 2525.07,5639.91 5639.91,5639.91c3114.84,0 5639.91,-2525.07 5639.91,-5639.91" style="fill:none;stroke:#fff;stroke-width:66.67px;"/><path d="M1985.58,7176.16l13093.9,0" style="fill:none;stroke:#fff;stroke-width:66.67px;"/><g transform="matrix(6.12323e-17,-1,1,6.12323e-17,-11694,6987.93)"><g transform="matrix(1200,0,0,1200,6457.37,13421.3)"></g><text x="-200.235px" y="13421.3px" style="font-family:'Figtree-Regular', 'Figtree';font-size:1200px;fill:#fff;">V<tspan x="583.365px " y="13421.3px ">a</tspan>lue added</text></g><g transform="matrix(870.545,0,0,870.545,12044.7,8341.09)"></g><text x="4972.42px" y="8341.09px" style="font-family:'Figtree-Regular', 'Figtree';font-size:870.545px;fill:#fff;">P<tspan x="5472.98px " y="8341.09px ">r</tspan>oduction st<tspan x="10208.7px " y="8341.09px ">a</tspan>ges</text><g transform="matrix(531.095,0,0,531.095,15129.2,7711.41)"></g><text x="13291.6px" y="7711.41px" style="font-family:'Figtree-Regular', 'Figtree';font-size:531.095px;fill:#fff;">Release</text><g transform="matrix(531.095,0,0,531.095,3922.17,7711.41)"></g><text x="1902.95px" y="7711.41px" style="font-family:'Figtree-Regular', 'Figtree';font-size:531.095px;fill:#fff;">Planning</text><g transform="matrix(519.422,0,0,519.422,5556.96,6894.93)"></g><text x="2232.14px" y="6894.93px" style="font-family:'Figtree-Regular', 'Figtree';font-size:519.422px;fill:#fff;">P<tspan x="2530.8px " y="6894.93px ">r</tspan>eproduction</text><g transform="matrix(519.422,0,0,519.422,9802.5,6992.58)"></g><text x="7243.82px" y="6992.58px" style="font-family:'Figtree-Regular', 'Figtree';font-size:519.422px;fill:#fff;">P<tspan x="7542.49px " y="6992.58px ">r</tspan>oduction</text><g transform="matrix(519.422,0,0,519.422,14952.9,6894.93)"></g><text x="11350.7px" y="6894.93px" style="font-family:'Figtree-Regular', 'Figtree';font-size:519.422px;fill:#fff;">P<tspan x="11646.2px " y="6894.93px ">o</tspan>stproduction</text><g transform="matrix(594.837,0,0,594.837,6897.87,1025.57)"></g><text x="3026.08px" y="1025.57px" style="font-family:'Figtree-Regular', 'Figtree';font-size:594.837px;fill:#fff;">Concept/ R&amp;D</text><g transform="matrix(594.837,0,0,594.837,5940.75,2561.76)"></g><text x="3573.3px" y="2561.76px" style="font-family:'Figtree-Regular', 'Figtree';font-size:594.837px;fill:#fff;">Branding</text><g transform="matrix(594.837,0,0,594.837,6262.26,4076.94)"></g><text x="4431.94px" y="4076.94px" style="font-family:'Figtree-Regular', 'Figtree';font-size:594.837px;fill:#fff;">Design</text><g transform="matrix(594.837,0,0,594.837,10470.8,5347.92)"></g><text x="6580.56px" y="5347.92px" style="font-family:'Figtree-Regular', 'Figtree';font-size:594.837px;fill:#fff;">Manuf<tspan x="8268.7px " y="5347.92px ">a</tspan>cturing</text><g transform="matrix(594.837,0,0,594.837,12665.3,4195.91)"></g><text x="9556.7px" y="4195.91px" style="font-family:'Figtree-Regular', 'Figtree';font-size:594.837px;fill:#fff;">Distribution</text><g transform="matrix(594.837,0,0,594.837,13498.4,2561.76)"></g><text x="10840px" y="2561.76px" style="font-family:'Figtree-Regular', 'Figtree';font-size:594.837px;fill:#fff;">Mark<tspan x="12129.6px " y="2561.76px ">e</tspan>ting</text><g transform="matrix(594.837,0,0,594.837,14016.5,1025.57)"></g><text x="10865px" y="1025.57px" style="font-family:'Figtree-Regular', 'Figtree';font-size:594.837px;fill:#fff;">Sales/ Aft<tspan x="13490.6px " y="1025.57px ">e</tspan>r</text></svg>