<?xml version="1.0" encoding="UTF-8" standalone="no"?>
<!DOCTYPE svg PUBLIC "-//W3C//DTD SVG 1.1//EN" "http://www.w3.org/Graphics/SVG/1.1/DTD/svg11.dtd">
<svg width="100%" height="100%" viewBox="0 0 800 800" version="1.1" xmlns="http://www.w3.org/2000/svg" xmlns:xlink="http://www.w3.org/1999/xlink" xml:space="preserve" xmlns:serif="http://www.serif.com/" style="fill-rule:evenodd;clip-rule:evenodd;stroke-linejoin:round;stroke-miterlimit:2;">
    <g id="Capa-1" serif:id="Capa 1" transform="matrix(1.375,0,0,1.375,-27378.5,-37296.7)">
        <path id="path4162" d="M19911.7,27124.9L19911.7,27270.3L19948,27270.3L19948,27161.2L20057.1,27161.2L20057.1,27124.9L19911.7,27124.9Z" style="fill:rgb(210,221,221);fill-rule:nonzero;"/>
        <path id="rect4134" d="M20457.1,27561.2L20457.1,27670.3L20348,27670.3L20348,27706.7L20493.5,27706.7L20493.5,27561.2L20457.1,27561.2Z" style="fill:rgb(210,221,221);fill-rule:nonzero;"/>
        <path id="path4170" d="M20493.5,27124.9L20493.5,27270.3L20457.1,27270.3L20457.1,27161.2L20348,27161.2L20348,27124.9L20493.5,27124.9Z" style="fill:rgb(210,221,221);fill-rule:nonzero;"/>
        <path id="path4172" d="M19948,27561.2L19948,27670.3L20057.1,27670.3L20057.1,27706.7L19911.7,27706.7L19911.7,27561.2L19948,27561.2Z" style="fill:rgb(210,221,221);fill-rule:nonzero;"/>
        <g id="rect4147" transform="matrix(1,0,0,1,19802.6,27015.8)">
            <path d="M218.182,218.182L218.182,581.818L581.818,581.818L581.818,218.182L218.182,218.182ZM254.545,254.545L545.455,254.545L545.455,545.455L254.545,545.455L254.545,254.545Z" style="fill:rgb(210,221,221);"/>
        </g>
    </g>
</svg>
