<?xml version="1.0" encoding="UTF-8" standalone="no"?>
<!DOCTYPE svg PUBLIC "-//W3C//DTD SVG 1.1//EN" "http://www.w3.org/Graphics/SVG/1.1/DTD/svg11.dtd">
<svg width="100%" height="100%" viewBox="0 0 643 254" version="1.1" xmlns="http://www.w3.org/2000/svg" xmlns:xlink="http://www.w3.org/1999/xlink" xml:space="preserve" xmlns:serif="http://www.serif.com/" style="fill-rule:evenodd;clip-rule:evenodd;stroke-linejoin:round;stroke-miterlimit:2;">
    <g transform="matrix(1,0,0,1,-6085.71,-1894.23)">
        <g id="Compact" transform="matrix(0.789196,0,0,0.789196,5813.67,157.649)">
            <rect x="473.342" y="2200.44" width="62.507" height="123.302" style="fill:white;"/>
            <g transform="matrix(1,0,0,1.06149,2,-135.312)">
                <rect x="703.046" y="2200.44" width="60.59" height="116.159" style="fill:white;"/>
            </g>
            <g transform="matrix(1,0,0,1,-9,0)">
                <path d="M840.172,2200.44L878.679,2238.81L878.679,2200.44L902.071,2200.44L902.071,2323.74L853.369,2323.74L810.036,2269.7L810.036,2323.74L778.207,2323.74L778.207,2200.44L840.172,2200.44Z" style="fill:white;"/>
            </g>
            <g transform="matrix(1,0,0,1,-20,0)">
                <path d="M977.904,2284.33L940.66,2284.33L925.08,2323.74L905.523,2323.74L953.841,2200.44L1024.02,2200.44L1058.6,2323.74L993.266,2323.74L977.904,2284.33ZM951.108,2258.52L968.06,2258.52L959.593,2236.78L951.108,2258.52Z" style="fill:white;"/>
            </g>
            <g transform="matrix(1,0,0,1,-35,0)">
                <path d="M1149.1,2293.99L1193.89,2293.99L1193.89,2323.74L1069.27,2323.74L1069.27,2200.44L1149.1,2200.44L1149.1,2293.99Z" style="fill:white;"/>
            </g>
            <g transform="matrix(1,0,0,1,-724.228,15.4844)">
                <path d="M1149.1,2278.5L1193.89,2278.5L1193.89,2308.26L1069.27,2308.26L1069.27,2184.96L1149.1,2184.96L1149.1,2278.5Z" style="fill:white;"/>
            </g>
            <g transform="matrix(1,0,0,1,1,0)">
                <path d="M604.491,2200.44L622.131,2223.5L643.942,2200.44L699.594,2200.44L699.594,2323.74L663.164,2323.74L663.164,2265.1L619.324,2323.74L581.099,2266.61L581.099,2323.74L539.3,2323.74L539.3,2200.44L604.491,2200.44Z" style="fill:white;"/>
            </g>
            <g id="GFX" transform="matrix(1,0,0,1,12.6711,-19.1725)">
                <path d="M526.782,2431.87C526.156,2431.6 525.806,2430.93 525.945,2430.26C526.083,2429.59 526.671,2429.11 527.353,2429.11C546.503,2429.09 577.893,2429.09 577.893,2429.09C577.893,2429.09 607.581,2430.26 607.581,2447.54C607.581,2464.82 607.581,2499.56 607.581,2514.66C607.581,2537.72 627.858,2540.35 627.858,2540.35L366.672,2540.35C357.487,2540.35 348.678,2536.7 342.184,2530.21C335.689,2523.71 332.04,2514.91 332.04,2505.72C332.04,2473.46 332.04,2425.63 332.04,2393.37C332.04,2384.18 335.689,2375.38 342.184,2368.88C348.678,2362.39 357.487,2358.74 366.672,2358.74C425.034,2358.74 541.156,2358.74 587.652,2358.74C592.938,2358.74 598.006,2360.84 601.744,2364.57C605.481,2368.31 607.581,2373.38 607.581,2378.66C607.581,2391.04 607.581,2406.27 607.581,2415.39C607.58,2416.13 607.082,2416.77 606.368,2416.96C605.655,2417.14 604.907,2416.82 604.548,2416.18C600.87,2409.79 593.152,2401.51 577.893,2401.51L463.626,2401.51C457.888,2401.51 452.385,2403.79 448.328,2407.84C444.27,2411.9 441.991,2417.4 441.991,2423.14C441.991,2440.32 441.991,2464.23 441.991,2481.41C441.991,2487.15 444.27,2492.65 448.328,2496.71C452.385,2500.77 457.888,2503.05 463.626,2503.05C479.439,2503.05 500.794,2503.05 516.607,2503.05C528.556,2503.05 538.242,2493.36 538.242,2481.41C538.242,2468.92 538.242,2454.37 538.242,2447.54C538.242,2438.9 532.69,2434.31 526.782,2431.87Z" style="fill:white;"/>
                <g transform="matrix(1,0,0,1,-15.2054,0)">
                    <path d="M632.217,2358.74C632.217,2358.74 654.366,2362.74 654.366,2379.98L654.366,2540.35L769.553,2540.35L769.553,2456.41L831.4,2456.41L831.4,2429.09L769.553,2429.09L769.553,2401.28L856.452,2401.28L856.452,2357.1L632.217,2358.74Z" style="fill:white;"/>
                </g>
                <g transform="matrix(1,0,0,1,-56.8832,0)">
                    <path d="M898.811,2357.1L1025.12,2357.1L1054.52,2392.9L1093.65,2357.1L1148.82,2357.1L1080.88,2424.26L1175.85,2540.35L1034.29,2540.35L1003.27,2498.57L960.494,2540.35L888.339,2540.35L976.351,2462.16L898.811,2357.1Z" style="fill:white;"/>
                </g>
            </g>
        </g>
    </g>
</svg>
