<?xml version="1.0" encoding="UTF-8" standalone="no"?><!DOCTYPE svg PUBLIC "-//W3C//DTD SVG 1.1//EN" "http://www.w3.org/Graphics/SVG/1.1/DTD/svg11.dtd"><svg width="100%" height="100%" viewBox="0 0 54 162" version="1.1" xmlns="http://www.w3.org/2000/svg" xmlns:xlink="http://www.w3.org/1999/xlink" xml:space="preserve" xmlns:serif="http://www.serif.com/" style="fill-rule:evenodd;clip-rule:evenodd;stroke-linecap:round;stroke-linejoin:round;stroke-miterlimit:1.5;"><path d="M51.585,26.834c0,13.661 -11.09,24.751 -24.751,24.751c-13.66,0 -24.751,-11.09 -24.751,-24.751c0,-13.66 11.091,-24.751 24.751,-24.751c13.661,0 24.751,11.091 24.751,24.751Z" style="stroke:url(#_Linear1);stroke-width:4.17px;"/><path d="M2.083,134.186c0,-13.66 11.091,-24.751 24.751,-24.751c13.661,0 24.751,11.091 24.751,24.751c0,13.661 -11.09,24.751 -24.751,24.751c-13.66,0 -24.751,-11.09 -24.751,-24.751Z" style="stroke:url(#_Linear2);stroke-width:4.17px;"/><path d="M26.836,13.083c-7.97,0 -14.495,5.654 -14.495,12.563l-0,111.741c-0,6.909 6.525,12.563 14.495,12.563c7.971,-0 14.492,-5.654 14.492,-12.563l0,-111.741c0,-6.909 -6.521,-12.563 -14.492,-12.563" style="fill:#777;fill-rule:nonzero;"/><path d="M14.116,26.113l-0,111.737c-0,6.079 5.7,11.025 12.716,11.025c7.013,-0 12.721,-4.946 12.721,-11.025l0,-111.737c0,-6.084 -5.708,-11.03 -12.721,-11.03c-7.016,0 -12.716,4.946 -12.716,11.03Z" style="fill:url(#_Linear3);fill-rule:nonzero;"/><defs><linearGradient id="_Linear1" x1="0" y1="0" x2="1" y2="0" gradientUnits="userSpaceOnUse" gradientTransform="matrix(3.03113e-15,49.5021,-49.5021,3.03113e-15,26.8344,2.08333)"><stop offset="0" style="stop-color:#fff;stop-opacity:1"/><stop offset="1" style="stop-color:#fff;stop-opacity:0"/></linearGradient><linearGradient id="_Linear2" x1="0" y1="0" x2="1" y2="0" gradientUnits="userSpaceOnUse" gradientTransform="matrix(3.03113e-15,-49.5021,49.5021,3.03113e-15,26.8344,158.937)"><stop offset="0" style="stop-color:#fff;stop-opacity:1"/><stop offset="1" style="stop-color:#fff;stop-opacity:0"/></linearGradient><linearGradient id="_Linear3" x1="0" y1="0" x2="1" y2="0" gradientUnits="userSpaceOnUse" gradientTransform="matrix(9.60452e-15,-156.854,156.854,9.60452e-15,14.1156,158.937)"><stop offset="0" style="stop-color:#b3b3b3;stop-opacity:1"/><stop offset="0.1" style="stop-color:#d1d1d1;stop-opacity:1"/><stop offset="0.21" style="stop-color:#f0f0f0;stop-opacity:1"/><stop offset="0.5" style="stop-color:#fff;stop-opacity:1"/><stop offset="0.79" style="stop-color:#f0f0f0;stop-opacity:1"/><stop offset="0.9" style="stop-color:#d1d1d1;stop-opacity:1"/><stop offset="1" style="stop-color:#b3b3b3;stop-opacity:1"/></linearGradient></defs></svg>