<?xml version="1.0" encoding="UTF-8" standalone="no"?>
<!DOCTYPE svg PUBLIC "-//W3C//DTD SVG 1.1//EN" "http://www.w3.org/Graphics/SVG/1.1/DTD/svg11.dtd">
<svg width="100%" height="100%" viewBox="0 0 800 800" version="1.1" xmlns="http://www.w3.org/2000/svg" xmlns:xlink="http://www.w3.org/1999/xlink" xml:space="preserve" xmlns:serif="http://www.serif.com/" style="fill-rule:evenodd;clip-rule:evenodd;stroke-linejoin:round;stroke-miterlimit:2;">
    <path d="M146.563,179.063C139.219,180.781 143.906,180.469 137.813,181.25C111.719,186.875 131.094,191.875 146.563,179.063ZM605.469,189.531C607.344,188.281 613.906,181.875 593.438,175.625C594.688,182.031 589.219,181.406 589.219,185C604.375,198.75 610.625,222.656 630,227.656C633.75,210.469 612.813,202.031 605.469,189.531ZM132.656,174.063C135,187.969 145.469,159.375 145.625,149.219C141.563,151.563 137.5,153.906 133.281,155.781C143.125,160.781 134.531,166.094 123.906,174.063C102.344,200.938 144.063,153.125 132.656,174.063ZM400,0C179.063,0 0,179.063 0,400C0,620.781 179.063,800 400,800C620.938,800 800,620.781 800,400C800,179.063 620.938,0 400,0ZM410.625,134.063L412.5,134.688C405,144.375 451.563,172.656 418.125,175C386.875,183.906 431.25,166.875 407.031,169.844C419.844,152.031 396.875,151.719 410.625,134.063ZM220.938,159.688C209.688,150.313 174.375,172.5 186.719,167.188C217.344,155.156 188.75,168.438 195.938,182.813C189.375,196.406 193.75,169.375 177.5,185.469C165.781,188.125 137.031,214.688 140.625,206.562C139.688,219.219 106.406,234.219 101.875,255.312C90.938,284.531 99.219,254.219 97.188,242.812C81.563,222.969 53.125,276.406 61.563,297.5C75.781,272.5 74.688,294.844 64.375,305.938C74.844,325.156 54.844,350.156 74.688,364.375C83.438,366.406 100.938,335 93.281,367.656C98.594,339.375 107.969,374.375 123.125,366.563C124.063,381.406 133.281,374.531 135.313,392.5C160.625,390.625 183.75,433.437 153.594,441.562C158.125,440.312 167.031,448.281 177.344,442.187C194.844,456.094 240.938,457.812 242.188,492.187C210.469,507.344 234.375,548.906 206.875,563.75C175.313,559.062 196.094,602.656 182.813,597.656C188.125,629.063 150.938,593.594 165.313,610.937C191.719,627.187 153.75,623.906 165.625,635.781C152.344,632.969 173.906,660.469 177.5,670.625C196.563,701.562 161.094,663.75 150.625,653.437C140.625,633.437 117.031,595.156 110.469,563.75C106.719,518.125 71.406,487.5 63.281,442.969C55.156,418.125 85.625,378.281 69.219,364.375C55,353.281 60.781,315.312 52.344,295.312C73.437,203.906 140.469,126.875 220.937,81.25C212.656,87.344 268.281,65.469 261.875,70.781C260.156,74.687 294.375,55.937 315,53.125C312.812,53.437 261.406,71.875 275.625,69.375C253.594,80.156 273.437,74.062 284.375,68.594C262.5,84.687 245.625,80.156 220.781,94.375C195.781,100.937 200.937,126.875 183.125,139.844C193.594,141.719 219.844,112.812 235.156,102.656C270.312,85.625 217.344,133.594 250.781,112.969C239.531,123.437 241.875,140.156 235,144.844C231.562,143.906 248.594,152.969 220.938,159.688ZM275.625,87.813C272.031,92.656 267.031,103.125 264.063,96.719C260,98.75 258.438,107.5 250.781,100.469C255.313,97.188 260,89.375 251.094,94.219C255.156,89.844 291.406,77.5 289.375,72.813C295.781,68.75 295.156,66.719 287.813,69.219C284.063,67.969 296.719,57.344 313.594,55.938C315.938,55.938 316.875,57.5 312.656,57.031C287.188,64.844 298.125,62.656 315.313,57.031C308.75,60.781 304.219,61.875 303.125,63.594C320.312,57.344 302.187,68.125 306.094,67.344C301.25,69.844 306.875,70.625 297.5,74.219C299.219,72.813 282.187,84.375 292.344,80.938C282.5,90.313 278.125,90.469 275.625,87.813ZM290.625,110.156C290.938,95.156 312.5,85.625 309.844,84.844C336.406,72.344 300.625,85.312 321.563,74.063C329.375,73.281 345.938,48.281 368.906,46.719C394.219,39.063 382.5,47.188 401.25,40L397.5,43.125C394.219,43.594 398.281,49.375 386.406,58.125C385.156,71.719 363.75,65.469 374.375,80C367.5,70.156 357.188,79.687 370.156,80.625C356.25,91.25 323.906,93.125 308.438,110.781C298.438,125.156 289.219,120.625 290.625,110.156ZM401.719,160.156C391.094,185.781 380.781,156.406 399.531,151.719C404.219,154.219 406.094,155 401.719,160.156ZM361.719,108.906C358.594,97.344 361.094,103.438 379.688,97.969C392.5,107.187 368.281,113.281 361.719,108.906ZM652.656,567.5C637.969,542.188 670.469,518.75 681.406,497.5C680,522.344 676.875,546.875 652.656,567.5ZM707.969,278.281C692.031,279.531 677.656,283.281 663.281,274.219C630.156,237.969 669.375,315.156 680.313,283.594C719.688,298.594 679.688,363.281 654.844,356.563C640.938,326.563 623.75,293.594 593.437,278.906C616.719,304.688 628.281,336.406 653.281,359.688C655,392.188 687.969,347.813 685.937,372.969C689.062,416.25 637.031,442.188 646.094,485.625C665.469,525.156 608.75,532.344 615.156,567.813C592.344,593.281 567.969,627.656 527.031,622.188C527.031,600.625 516.094,582.344 513.594,560.156C491.406,532.031 537.031,501.875 508.75,472.5C476.094,465.156 515.469,420.156 481.875,424.375C461.719,404.219 432.187,423.75 403.281,423.906C367.031,427.344 329.687,379.375 345.781,345.469C332.969,310.156 386.406,299.844 387.812,268.75C413.437,247.344 449.844,250 484.531,245C482.031,269.844 508.281,270 528.125,278.281C539.219,251.406 573.75,282.656 597.344,265.625C605.469,225.938 574.375,249.844 556.562,237.188C535,205.625 602.656,220.938 595.625,204.375C569.375,204.219 584.219,172.031 565.625,190C582.344,192.969 562.656,206.094 563.125,191.094C537.812,183.75 562.187,219.844 549.375,223.281C529.844,215.156 539.062,232.5 541.094,235.156C532.656,253.437 522.344,208.281 498.437,209.531C474.687,187.812 489.062,219.375 509.687,224.531C505.312,225.781 512.187,243.75 506.719,236.094C489.687,212.656 457.344,197.031 438.125,225.781C436.094,252.656 381.406,260.313 390.156,228.906C377.344,196.406 429.844,227.969 425,202.031C391.25,179.688 434.219,186.875 445.625,165.938C471.562,166.719 446.719,144.688 458.906,138.281C457.656,162.188 478.75,157.656 495.469,153.125C491.406,139.375 505.469,139.844 496.875,128.438C535.625,112.969 467.344,135.625 481.094,101.719C464.375,90.156 474.062,127.188 481.094,131.094C481.562,142.5 471.875,156.563 458.594,132.656C439.219,145.313 441.25,119.844 440,122.5C437.812,112.656 454.687,112.188 454.844,95C453.437,84.063 453.75,78.281 461.562,77.656C462.187,79.219 493.594,79.688 504.687,92.656C474.375,86.563 500.156,97.656 513.75,103.906C499.219,92.5 519.531,103.906 507.656,90.938C512.344,91.875 494.687,73.125 512.812,89.531C502.969,77.813 532.031,81.25 514.844,72.5C540,79.531 525.156,73.125 510.312,66.719C469.375,42.344 582.656,99.688 536.406,74.219C565.937,80.625 473.281,51.406 515.469,64.219C499.375,57.188 515,61.094 529.531,65.625C503.438,57.5 464.375,42.344 465.938,41.719C475,42.344 483.906,44.375 492.5,46.875C519.219,54.844 484.844,45 492.188,45.156C584.063,68.75 664.531,130.313 713.438,210.781C724.844,222.813 755.938,302.344 739.688,267.031C747.031,295.156 748.125,325.469 752.031,354.219C743.906,345.156 734.844,311.719 727.031,293.125C723.75,300.313 720,282.969 707.969,278.281Z" style="fill:rgb(208,219,222);fill-rule:nonzero;"/>
</svg>
