<?xml version="1.0" encoding="UTF-8" standalone="no"?>
<!DOCTYPE svg PUBLIC "-//W3C//DTD SVG 1.1//EN" "http://www.w3.org/Graphics/SVG/1.1/DTD/svg11.dtd">
<svg width="100%" height="100%" viewBox="0 0 1891 440" version="1.1" xmlns="http://www.w3.org/2000/svg" xmlns:xlink="http://www.w3.org/1999/xlink" xml:space="preserve" xmlns:serif="http://www.serif.com/" style="fill-rule:evenodd;clip-rule:evenodd;stroke-linejoin:round;stroke-miterlimit:2;">
    <g transform="matrix(1,0,0,1,-295.276,-295.276)">
        <g transform="matrix(0.711527,0,0,0.711527,17.2898,105.815)">
            <g transform="matrix(415.256,0,0,415.256,383.19,715.934)">
                <path d="M0.388,-0.698L0.367,-0.698L0.146,-0.245L0.067,-0.245L0.067,-0.184L0.117,-0.184L0.027,-0L0.105,-0L0.194,-0.184L0.569,-0.184L0.662,-0L0.74,-0L0.388,-0.698ZM0.223,-0.245L0.379,-0.569L0.538,-0.245L0.223,-0.245Z" style="fill:rgb(215,221,223);fill-rule:nonzero;"/>
            </g>
            <g transform="matrix(415.256,0,0,415.256,701.691,715.934)">
                <path d="M0.094,-0.413L0.094,-0.5L0.027,-0.5L0.027,-0L0.097,-0L0.1,-0.272C0.101,-0.358 0.219,-0.461 0.303,-0.441L0.303,-0.51C0.24,-0.522 0.141,-0.47 0.094,-0.413Z" style="fill:rgb(215,221,223);fill-rule:nonzero;"/>
            </g>
            <g transform="matrix(415.256,0,0,415.256,832.912,715.934)">
                <path d="M0.326,-0.441L0.326,-0.5L0.168,-0.5L0.168,-0.657L0.099,-0.616L0.099,-0.5L0.017,-0.5L0.017,-0.44L0.099,-0.441L0.099,-0.172C0.099,-0.11 0.111,-0.068 0.136,-0.041C0.16,-0.014 0.197,-0.001 0.245,-0L0.3,-0L0.3,-0.059L0.258,-0.059C0.224,-0.059 0.202,-0.067 0.189,-0.085C0.175,-0.102 0.168,-0.132 0.168,-0.173L0.168,-0.441L0.326,-0.441Z" style="fill:rgb(215,221,223);fill-rule:nonzero;"/>
            </g>
            <g transform="matrix(415.256,0,0,415.256,972.438,715.934)">
                <path d="M0.09,-0.067L0.09,-0.698L0.019,-0.698L0.019,-0L0.451,-0L0.451,-0.067L0.09,-0.067Z" style="fill:rgb(215,221,223);fill-rule:nonzero;"/>
            </g>
            <g transform="matrix(415.256,0,0,415.256,1166.78,715.934)">
                <path d="M0.026,-0.698L0.026,-0.596L0.106,-0.596L0.106,-0.698L0.026,-0.698ZM0.03,-0L0.099,-0L0.103,-0.5L0.03,-0.5L0.03,-0Z" style="fill:rgb(215,221,223);fill-rule:nonzero;"/>
            </g>
            <g transform="matrix(415.256,0,0,415.256,1220.76,715.934)">
                <path d="M0.834,-0.46C0.798,-0.494 0.746,-0.51 0.682,-0.51C0.63,-0.51 0.585,-0.499 0.545,-0.475C0.515,-0.457 0.491,-0.432 0.476,-0.401C0.447,-0.473 0.382,-0.51 0.283,-0.51C0.234,-0.51 0.191,-0.5 0.154,-0.479C0.13,-0.465 0.11,-0.447 0.095,-0.426L0.095,-0.5L0.027,-0.5L0.027,-0L0.097,-0L0.1,-0.275C0.101,-0.336 0.118,-0.378 0.152,-0.405C0.188,-0.433 0.228,-0.448 0.276,-0.448C0.324,-0.448 0.36,-0.437 0.385,-0.414C0.408,-0.392 0.421,-0.348 0.422,-0.28L0.425,-0L0.495,-0L0.496,-0.275C0.496,-0.335 0.514,-0.377 0.549,-0.405C0.584,-0.433 0.626,-0.448 0.675,-0.448C0.719,-0.448 0.752,-0.436 0.778,-0.413C0.802,-0.391 0.814,-0.347 0.815,-0.28L0.819,-0L0.888,-0L0.888,-0.285C0.888,-0.367 0.87,-0.426 0.834,-0.46Z" style="fill:rgb(215,221,223);fill-rule:nonzero;"/>
            </g>
            <g transform="matrix(415.256,0,0,415.256,1600.72,715.934)">
                <path d="M0.026,-0.698L0.026,-0.596L0.106,-0.596L0.106,-0.698L0.026,-0.698ZM0.03,-0L0.099,-0L0.103,-0.5L0.03,-0.5L0.03,-0Z" style="fill:rgb(215,221,223);fill-rule:nonzero;"/>
            </g>
            <g transform="matrix(415.256,0,0,415.256,1654.7,715.934)">
                <path d="M0.445,-0.46C0.408,-0.493 0.355,-0.51 0.288,-0.51C0.237,-0.51 0.192,-0.5 0.155,-0.48C0.13,-0.467 0.11,-0.449 0.095,-0.428L0.095,-0.5L0.027,-0.5L0.027,-0L0.097,-0L0.1,-0.282C0.101,-0.338 0.119,-0.38 0.154,-0.406C0.189,-0.434 0.232,-0.448 0.282,-0.448C0.331,-0.448 0.366,-0.437 0.391,-0.414C0.415,-0.392 0.427,-0.348 0.428,-0.281L0.431,-0L0.501,-0L0.501,-0.286C0.501,-0.369 0.482,-0.427 0.445,-0.46Z" style="fill:rgb(215,221,223);fill-rule:nonzero;"/>
            </g>
            <g transform="matrix(415.256,0,0,415.256,1873.96,715.934)">
                <path d="M0.519,-0.5L0.519,-0.42C0.478,-0.479 0.4,-0.51 0.306,-0.51C0.138,-0.51 0.027,-0.404 0.027,-0.25C0.027,-0.095 0.134,0.01 0.305,0.01C0.393,0.01 0.471,-0.022 0.517,-0.075L0.517,-0L0.586,-0L0.586,-0.5L0.519,-0.5ZM0.516,-0.238C0.516,-0.129 0.437,-0.053 0.31,-0.053C0.178,-0.053 0.099,-0.133 0.101,-0.25C0.103,-0.37 0.182,-0.448 0.31,-0.448C0.442,-0.448 0.516,-0.373 0.516,-0.25L0.516,-0.238Z" style="fill:rgb(215,221,223);fill-rule:nonzero;"/>
            </g>
            <g transform="matrix(415.256,0,0,415.256,2128.51,715.934)">
                <rect x="0.029" y="-0.698" width="0.069" height="0.698" style="fill:rgb(215,221,223);fill-rule:nonzero;"/>
            </g>
            <g transform="matrix(415.256,0,0,415.256,2181.25,715.934)">
                <path d="M0.429,-0.329L0.703,-0.329L0.703,-0.306C0.703,-0.231 0.673,-0.17 0.618,-0.124C0.561,-0.077 0.486,-0.052 0.391,-0.052C0.201,-0.052 0.077,-0.169 0.075,-0.351C0.08,-0.53 0.218,-0.645 0.426,-0.645C0.553,-0.645 0.653,-0.603 0.726,-0.52L0.773,-0.572C0.688,-0.663 0.572,-0.708 0.426,-0.708C0.177,-0.708 0,-0.561 0,-0.351C0,-0.134 0.154,0.01 0.387,0.01C0.464,0.01 0.534,-0.005 0.595,-0.037C0.641,-0.061 0.679,-0.092 0.704,-0.127L0.702,-0L0.773,-0L0.773,-0.386L0.429,-0.386L0.429,-0.329Z" style="fill:rgb(215,221,223);fill-rule:nonzero;"/>
            </g>
            <g transform="matrix(415.256,0,0,415.256,2520.51,715.934)">
                <path d="M0.554,-0.637L0.554,-0.698L0.027,-0.698L0.027,-0L0.096,-0L0.096,-0.316L0.474,-0.316L0.498,-0.373L0.096,-0.373L0.096,-0.637L0.554,-0.637Z" style="fill:rgb(215,221,223);fill-rule:nonzero;"/>
            </g>
            <g transform="matrix(415.256,0,0,415.256,2761.78,715.934)">
                <path d="M0.598,-0L0.022,-0.698L0.11,-0.698L0.686,-0L0.598,-0ZM0.441,-0.408L0.353,-0.408L0.593,-0.698L0.68,-0.698L0.441,-0.408ZM0.261,-0.296L0.35,-0.296L0.102,-0L0.016,-0L0.261,-0.296Z" style="fill:rgb(215,221,223);fill-rule:nonzero;"/>
            </g>
        </g>
        <g opacity="0.74">
            <g>
                <g transform="matrix(1,0,0,1,134.554,172.787)">
                    <circle cx="163.662" cy="125.43" r="2.941" style="fill:rgb(215,221,223);"/>
                </g>
                <g transform="matrix(1,0,0,1,199.554,172.787)">
                    <circle cx="163.662" cy="125.43" r="2.941" style="fill:rgb(215,221,223);"/>
                </g>
                <g transform="matrix(1,0,0,1,134.554,234.787)">
                    <circle cx="163.662" cy="125.43" r="2.941" style="fill:rgb(215,221,223);"/>
                </g>
                <g transform="matrix(1,0,0,1,199.554,234.787)">
                    <circle cx="163.662" cy="125.43" r="2.941" style="fill:rgb(215,221,223);"/>
                </g>
                <g transform="matrix(1,0,0,1,264.915,172.787)">
                    <circle cx="163.662" cy="125.43" r="2.941" style="fill:rgb(215,221,223);"/>
                </g>
                <g transform="matrix(1,0,0,1,329.915,172.787)">
                    <circle cx="163.662" cy="125.43" r="2.941" style="fill:rgb(215,221,223);"/>
                </g>
                <g transform="matrix(1,0,0,1,264.915,234.787)">
                    <circle cx="163.662" cy="125.43" r="2.941" style="fill:rgb(215,221,223);"/>
                </g>
                <g transform="matrix(1,0,0,1,329.915,234.787)">
                    <circle cx="163.662" cy="125.43" r="2.941" style="fill:rgb(215,221,223);"/>
                </g>
                <g transform="matrix(1,0,0,1,394.554,172.787)">
                    <circle cx="163.662" cy="125.43" r="2.941" style="fill:rgb(215,221,223);"/>
                </g>
                <g transform="matrix(1,0,0,1,459.554,172.787)">
                    <circle cx="163.662" cy="125.43" r="2.941" style="fill:rgb(215,221,223);"/>
                </g>
                <g transform="matrix(1,0,0,1,394.554,234.787)">
                    <circle cx="163.662" cy="125.43" r="2.941" style="fill:rgb(215,221,223);"/>
                </g>
                <g transform="matrix(1,0,0,1,459.554,234.787)">
                    <circle cx="163.662" cy="125.43" r="2.941" style="fill:rgb(215,221,223);"/>
                </g>
                <g transform="matrix(1,0,0,1,524.915,172.787)">
                    <circle cx="163.662" cy="125.43" r="2.941" style="fill:rgb(215,221,223);"/>
                </g>
                <g transform="matrix(1,0,0,1,589.915,172.787)">
                    <circle cx="163.662" cy="125.43" r="2.941" style="fill:rgb(215,221,223);"/>
                </g>
                <g transform="matrix(1,0,0,1,524.915,234.787)">
                    <circle cx="163.662" cy="125.43" r="2.941" style="fill:rgb(215,221,223);"/>
                </g>
                <g transform="matrix(1,0,0,1,589.915,234.787)">
                    <circle cx="163.662" cy="125.43" r="2.941" style="fill:rgb(215,221,223);"/>
                </g>
            </g>
            <g transform="matrix(1,0,0,1,519.854,0)">
                <g transform="matrix(1,0,0,1,134.554,172.787)">
                    <circle cx="163.662" cy="125.43" r="2.941" style="fill:rgb(215,221,223);"/>
                </g>
                <g transform="matrix(1,0,0,1,199.554,172.787)">
                    <circle cx="163.662" cy="125.43" r="2.941" style="fill:rgb(215,221,223);"/>
                </g>
                <g transform="matrix(1,0,0,1,134.554,234.787)">
                    <circle cx="163.662" cy="125.43" r="2.941" style="fill:rgb(215,221,223);"/>
                </g>
                <g transform="matrix(1,0,0,1,199.554,234.787)">
                    <circle cx="163.662" cy="125.43" r="2.941" style="fill:rgb(215,221,223);"/>
                </g>
                <g transform="matrix(1,0,0,1,264.915,172.787)">
                    <circle cx="163.662" cy="125.43" r="2.941" style="fill:rgb(215,221,223);"/>
                </g>
                <g transform="matrix(1,0,0,1,329.915,172.787)">
                    <circle cx="163.662" cy="125.43" r="2.941" style="fill:rgb(215,221,223);"/>
                </g>
                <g transform="matrix(1,0,0,1,264.915,234.787)">
                    <circle cx="163.662" cy="125.43" r="2.941" style="fill:rgb(215,221,223);"/>
                </g>
                <g transform="matrix(1,0,0,1,329.915,234.787)">
                    <circle cx="163.662" cy="125.43" r="2.941" style="fill:rgb(215,221,223);"/>
                </g>
                <g transform="matrix(1,0,0,1,394.554,172.787)">
                    <circle cx="163.662" cy="125.43" r="2.941" style="fill:rgb(215,221,223);"/>
                </g>
                <g transform="matrix(1,0,0,1,459.554,172.787)">
                    <circle cx="163.662" cy="125.43" r="2.941" style="fill:rgb(215,221,223);"/>
                </g>
                <g transform="matrix(1,0,0,1,394.554,234.787)">
                    <circle cx="163.662" cy="125.43" r="2.941" style="fill:rgb(215,221,223);"/>
                </g>
                <g transform="matrix(1,0,0,1,459.554,234.787)">
                    <circle cx="163.662" cy="125.43" r="2.941" style="fill:rgb(215,221,223);"/>
                </g>
                <g transform="matrix(1,0,0,1,524.915,172.787)">
                    <circle cx="163.662" cy="125.43" r="2.941" style="fill:rgb(215,221,223);"/>
                </g>
                <g transform="matrix(1,0,0,1,589.915,172.787)">
                    <circle cx="163.662" cy="125.43" r="2.941" style="fill:rgb(215,221,223);"/>
                </g>
                <g transform="matrix(1,0,0,1,524.915,234.787)">
                    <circle cx="163.662" cy="125.43" r="2.941" style="fill:rgb(215,221,223);"/>
                </g>
                <g transform="matrix(1,0,0,1,589.915,234.787)">
                    <circle cx="163.662" cy="125.43" r="2.941" style="fill:rgb(215,221,223);"/>
                </g>
            </g>
            <g transform="matrix(1,0,0,1,1039.79,0)">
                <g transform="matrix(1,0,0,1,134.554,172.787)">
                    <circle cx="163.662" cy="125.43" r="2.941" style="fill:rgb(215,221,223);"/>
                </g>
                <g transform="matrix(1,0,0,1,199.554,172.787)">
                    <circle cx="163.662" cy="125.43" r="2.941" style="fill:rgb(215,221,223);"/>
                </g>
                <g transform="matrix(1,0,0,1,134.554,234.787)">
                    <circle cx="163.662" cy="125.43" r="2.941" style="fill:rgb(215,221,223);"/>
                </g>
                <g transform="matrix(1,0,0,1,199.554,234.787)">
                    <circle cx="163.662" cy="125.43" r="2.941" style="fill:rgb(215,221,223);"/>
                </g>
                <g transform="matrix(1,0,0,1,264.915,172.787)">
                    <circle cx="163.662" cy="125.43" r="2.941" style="fill:rgb(215,221,223);"/>
                </g>
                <g transform="matrix(1,0,0,1,329.915,172.787)">
                    <circle cx="163.662" cy="125.43" r="2.941" style="fill:rgb(215,221,223);"/>
                </g>
                <g transform="matrix(1,0,0,1,264.915,234.787)">
                    <circle cx="163.662" cy="125.43" r="2.941" style="fill:rgb(215,221,223);"/>
                </g>
                <g transform="matrix(1,0,0,1,329.915,234.787)">
                    <circle cx="163.662" cy="125.43" r="2.941" style="fill:rgb(215,221,223);"/>
                </g>
                <g transform="matrix(1,0,0,1,394.554,172.787)">
                    <circle cx="163.662" cy="125.43" r="2.941" style="fill:rgb(215,221,223);"/>
                </g>
                <g transform="matrix(1,0,0,1,459.554,172.787)">
                    <circle cx="163.662" cy="125.43" r="2.941" style="fill:rgb(215,221,223);"/>
                </g>
                <g transform="matrix(1,0,0,1,394.554,234.787)">
                    <circle cx="163.662" cy="125.43" r="2.941" style="fill:rgb(215,221,223);"/>
                </g>
                <g transform="matrix(1,0,0,1,459.554,234.787)">
                    <circle cx="163.662" cy="125.43" r="2.941" style="fill:rgb(215,221,223);"/>
                </g>
                <g transform="matrix(1,0,0,1,524.915,172.787)">
                    <circle cx="163.662" cy="125.43" r="2.941" style="fill:rgb(215,221,223);"/>
                </g>
                <g transform="matrix(1,0,0,1,589.915,172.787)">
                    <circle cx="163.662" cy="125.43" r="2.941" style="fill:rgb(215,221,223);"/>
                </g>
                <g transform="matrix(1,0,0,1,524.915,234.787)">
                    <circle cx="163.662" cy="125.43" r="2.941" style="fill:rgb(215,221,223);"/>
                </g>
                <g transform="matrix(1,0,0,1,589.915,234.787)">
                    <circle cx="163.662" cy="125.43" r="2.941" style="fill:rgb(215,221,223);"/>
                </g>
            </g>
            <g transform="matrix(1,0,0,1,1559.65,0)">
                <g transform="matrix(1,0,0,1,134.554,172.787)">
                    <circle cx="163.662" cy="125.43" r="2.941" style="fill:rgb(215,221,223);"/>
                </g>
                <g transform="matrix(1,0,0,1,199.554,172.787)">
                    <circle cx="163.662" cy="125.43" r="2.941" style="fill:rgb(215,221,223);"/>
                </g>
                <g transform="matrix(1,0,0,1,134.554,234.787)">
                    <circle cx="163.662" cy="125.43" r="2.941" style="fill:rgb(215,221,223);"/>
                </g>
                <g transform="matrix(1,0,0,1,199.554,234.787)">
                    <circle cx="163.662" cy="125.43" r="2.941" style="fill:rgb(215,221,223);"/>
                </g>
                <g transform="matrix(1,0,0,1,264.915,172.787)">
                    <circle cx="163.662" cy="125.43" r="2.941" style="fill:rgb(215,221,223);"/>
                </g>
                <g transform="matrix(1,0,0,1,329.915,172.787)">
                    <circle cx="163.662" cy="125.43" r="2.941" style="fill:rgb(215,221,223);"/>
                </g>
                <g transform="matrix(1,0,0,1,264.915,234.787)">
                    <circle cx="163.662" cy="125.43" r="2.941" style="fill:rgb(215,221,223);"/>
                </g>
                <g transform="matrix(1,0,0,1,329.915,234.787)">
                    <circle cx="163.662" cy="125.43" r="2.941" style="fill:rgb(215,221,223);"/>
                </g>
                <g transform="matrix(1,0,0,1,394.554,172.787)">
                    <circle cx="163.662" cy="125.43" r="2.941" style="fill:rgb(215,221,223);"/>
                </g>
                <g transform="matrix(1,0,0,1,459.554,172.787)">
                    <circle cx="163.662" cy="125.43" r="2.941" style="fill:rgb(215,221,223);"/>
                </g>
                <g transform="matrix(1,0,0,1,394.554,234.787)">
                    <circle cx="163.662" cy="125.43" r="2.941" style="fill:rgb(215,221,223);"/>
                </g>
                <g transform="matrix(1,0,0,1,459.554,234.787)">
                    <circle cx="163.662" cy="125.43" r="2.941" style="fill:rgb(215,221,223);"/>
                </g>
            </g>
        </g>
        <g transform="matrix(1,0,0,1,0,371.43)">
            <g opacity="0.74">
                <g>
                    <g transform="matrix(1,0,0,1,134.554,172.787)">
                        <circle cx="163.662" cy="125.43" r="2.941" style="fill:rgb(215,221,223);"/>
                    </g>
                    <g transform="matrix(1,0,0,1,199.554,172.787)">
                        <circle cx="163.662" cy="125.43" r="2.941" style="fill:rgb(215,221,223);"/>
                    </g>
                    <g transform="matrix(1,0,0,1,134.554,234.787)">
                        <circle cx="163.662" cy="125.43" r="2.941" style="fill:rgb(215,221,223);"/>
                    </g>
                    <g transform="matrix(1,0,0,1,199.554,234.787)">
                        <circle cx="163.662" cy="125.43" r="2.941" style="fill:rgb(215,221,223);"/>
                    </g>
                    <g transform="matrix(1,0,0,1,264.915,172.787)">
                        <circle cx="163.662" cy="125.43" r="2.941" style="fill:rgb(215,221,223);"/>
                    </g>
                    <g transform="matrix(1,0,0,1,329.915,172.787)">
                        <circle cx="163.662" cy="125.43" r="2.941" style="fill:rgb(215,221,223);"/>
                    </g>
                    <g transform="matrix(1,0,0,1,264.915,234.787)">
                        <circle cx="163.662" cy="125.43" r="2.941" style="fill:rgb(215,221,223);"/>
                    </g>
                    <g transform="matrix(1,0,0,1,329.915,234.787)">
                        <circle cx="163.662" cy="125.43" r="2.941" style="fill:rgb(215,221,223);"/>
                    </g>
                    <g transform="matrix(1,0,0,1,394.554,172.787)">
                        <circle cx="163.662" cy="125.43" r="2.941" style="fill:rgb(215,221,223);"/>
                    </g>
                    <g transform="matrix(1,0,0,1,459.554,172.787)">
                        <circle cx="163.662" cy="125.43" r="2.941" style="fill:rgb(215,221,223);"/>
                    </g>
                    <g transform="matrix(1,0,0,1,394.554,234.787)">
                        <circle cx="163.662" cy="125.43" r="2.941" style="fill:rgb(215,221,223);"/>
                    </g>
                    <g transform="matrix(1,0,0,1,459.554,234.787)">
                        <circle cx="163.662" cy="125.43" r="2.941" style="fill:rgb(215,221,223);"/>
                    </g>
                    <g transform="matrix(1,0,0,1,524.915,172.787)">
                        <circle cx="163.662" cy="125.43" r="2.941" style="fill:rgb(215,221,223);"/>
                    </g>
                    <g transform="matrix(1,0,0,1,589.915,172.787)">
                        <circle cx="163.662" cy="125.43" r="2.941" style="fill:rgb(215,221,223);"/>
                    </g>
                    <g transform="matrix(1,0,0,1,524.915,234.787)">
                        <circle cx="163.662" cy="125.43" r="2.941" style="fill:rgb(215,221,223);"/>
                    </g>
                    <g transform="matrix(1,0,0,1,589.915,234.787)">
                        <circle cx="163.662" cy="125.43" r="2.941" style="fill:rgb(215,221,223);"/>
                    </g>
                </g>
                <g transform="matrix(1,0,0,1,519.854,0)">
                    <g transform="matrix(1,0,0,1,134.554,172.787)">
                        <circle cx="163.662" cy="125.43" r="2.941" style="fill:rgb(215,221,223);"/>
                    </g>
                    <g transform="matrix(1,0,0,1,199.554,172.787)">
                        <circle cx="163.662" cy="125.43" r="2.941" style="fill:rgb(215,221,223);"/>
                    </g>
                    <g transform="matrix(1,0,0,1,134.554,234.787)">
                        <circle cx="163.662" cy="125.43" r="2.941" style="fill:rgb(215,221,223);"/>
                    </g>
                    <g transform="matrix(1,0,0,1,199.554,234.787)">
                        <circle cx="163.662" cy="125.43" r="2.941" style="fill:rgb(215,221,223);"/>
                    </g>
                    <g transform="matrix(1,0,0,1,264.915,172.787)">
                        <circle cx="163.662" cy="125.43" r="2.941" style="fill:rgb(215,221,223);"/>
                    </g>
                    <g transform="matrix(1,0,0,1,329.915,172.787)">
                        <circle cx="163.662" cy="125.43" r="2.941" style="fill:rgb(215,221,223);"/>
                    </g>
                    <g transform="matrix(1,0,0,1,264.915,234.787)">
                        <circle cx="163.662" cy="125.43" r="2.941" style="fill:rgb(215,221,223);"/>
                    </g>
                    <g transform="matrix(1,0,0,1,329.915,234.787)">
                        <circle cx="163.662" cy="125.43" r="2.941" style="fill:rgb(215,221,223);"/>
                    </g>
                    <g transform="matrix(1,0,0,1,394.554,172.787)">
                        <circle cx="163.662" cy="125.43" r="2.941" style="fill:rgb(215,221,223);"/>
                    </g>
                    <g transform="matrix(1,0,0,1,459.554,172.787)">
                        <circle cx="163.662" cy="125.43" r="2.941" style="fill:rgb(215,221,223);"/>
                    </g>
                    <g transform="matrix(1,0,0,1,394.554,234.787)">
                        <circle cx="163.662" cy="125.43" r="2.941" style="fill:rgb(215,221,223);"/>
                    </g>
                    <g transform="matrix(1,0,0,1,459.554,234.787)">
                        <circle cx="163.662" cy="125.43" r="2.941" style="fill:rgb(215,221,223);"/>
                    </g>
                    <g transform="matrix(1,0,0,1,524.915,172.787)">
                        <circle cx="163.662" cy="125.43" r="2.941" style="fill:rgb(215,221,223);"/>
                    </g>
                    <g transform="matrix(1,0,0,1,589.915,172.787)">
                        <circle cx="163.662" cy="125.43" r="2.941" style="fill:rgb(215,221,223);"/>
                    </g>
                    <g transform="matrix(1,0,0,1,524.915,234.787)">
                        <circle cx="163.662" cy="125.43" r="2.941" style="fill:rgb(215,221,223);"/>
                    </g>
                    <g transform="matrix(1,0,0,1,589.915,234.787)">
                        <circle cx="163.662" cy="125.43" r="2.941" style="fill:rgb(215,221,223);"/>
                    </g>
                </g>
                <g transform="matrix(1,0,0,1,1039.79,0)">
                    <g transform="matrix(1,0,0,1,134.554,172.787)">
                        <circle cx="163.662" cy="125.43" r="2.941" style="fill:rgb(215,221,223);"/>
                    </g>
                    <g transform="matrix(1,0,0,1,199.554,172.787)">
                        <circle cx="163.662" cy="125.43" r="2.941" style="fill:rgb(215,221,223);"/>
                    </g>
                    <g transform="matrix(1,0,0,1,134.554,234.787)">
                        <circle cx="163.662" cy="125.43" r="2.941" style="fill:rgb(215,221,223);"/>
                    </g>
                    <g transform="matrix(1,0,0,1,199.554,234.787)">
                        <circle cx="163.662" cy="125.43" r="2.941" style="fill:rgb(215,221,223);"/>
                    </g>
                    <g transform="matrix(1,0,0,1,264.915,172.787)">
                        <circle cx="163.662" cy="125.43" r="2.941" style="fill:rgb(215,221,223);"/>
                    </g>
                    <g transform="matrix(1,0,0,1,329.915,172.787)">
                        <circle cx="163.662" cy="125.43" r="2.941" style="fill:rgb(215,221,223);"/>
                    </g>
                    <g transform="matrix(1,0,0,1,264.915,234.787)">
                        <circle cx="163.662" cy="125.43" r="2.941" style="fill:rgb(215,221,223);"/>
                    </g>
                    <g transform="matrix(1,0,0,1,329.915,234.787)">
                        <circle cx="163.662" cy="125.43" r="2.941" style="fill:rgb(215,221,223);"/>
                    </g>
                    <g transform="matrix(1,0,0,1,394.554,172.787)">
                        <circle cx="163.662" cy="125.43" r="2.941" style="fill:rgb(215,221,223);"/>
                    </g>
                    <g transform="matrix(1,0,0,1,459.554,172.787)">
                        <circle cx="163.662" cy="125.43" r="2.941" style="fill:rgb(215,221,223);"/>
                    </g>
                    <g transform="matrix(1,0,0,1,394.554,234.787)">
                        <circle cx="163.662" cy="125.43" r="2.941" style="fill:rgb(215,221,223);"/>
                    </g>
                    <g transform="matrix(1,0,0,1,459.554,234.787)">
                        <circle cx="163.662" cy="125.43" r="2.941" style="fill:rgb(215,221,223);"/>
                    </g>
                    <g transform="matrix(1,0,0,1,524.915,172.787)">
                        <circle cx="163.662" cy="125.43" r="2.941" style="fill:rgb(215,221,223);"/>
                    </g>
                    <g transform="matrix(1,0,0,1,589.915,172.787)">
                        <circle cx="163.662" cy="125.43" r="2.941" style="fill:rgb(215,221,223);"/>
                    </g>
                    <g transform="matrix(1,0,0,1,524.915,234.787)">
                        <circle cx="163.662" cy="125.43" r="2.941" style="fill:rgb(215,221,223);"/>
                    </g>
                    <g transform="matrix(1,0,0,1,589.915,234.787)">
                        <circle cx="163.662" cy="125.43" r="2.941" style="fill:rgb(215,221,223);"/>
                    </g>
                </g>
                <g transform="matrix(1,0,0,1,1559.65,0)">
                    <g transform="matrix(1,0,0,1,134.554,172.787)">
                        <circle cx="163.662" cy="125.43" r="2.941" style="fill:rgb(215,221,223);"/>
                    </g>
                    <g transform="matrix(1,0,0,1,199.554,172.787)">
                        <circle cx="163.662" cy="125.43" r="2.941" style="fill:rgb(215,221,223);"/>
                    </g>
                    <g transform="matrix(1,0,0,1,134.554,234.787)">
                        <circle cx="163.662" cy="125.43" r="2.941" style="fill:rgb(215,221,223);"/>
                    </g>
                    <g transform="matrix(1,0,0,1,199.554,234.787)">
                        <circle cx="163.662" cy="125.43" r="2.941" style="fill:rgb(215,221,223);"/>
                    </g>
                    <g transform="matrix(1,0,0,1,264.915,172.787)">
                        <circle cx="163.662" cy="125.43" r="2.941" style="fill:rgb(215,221,223);"/>
                    </g>
                    <g transform="matrix(1,0,0,1,329.915,172.787)">
                        <circle cx="163.662" cy="125.43" r="2.941" style="fill:rgb(215,221,223);"/>
                    </g>
                    <g transform="matrix(1,0,0,1,264.915,234.787)">
                        <circle cx="163.662" cy="125.43" r="2.941" style="fill:rgb(215,221,223);"/>
                    </g>
                    <g transform="matrix(1,0,0,1,329.915,234.787)">
                        <circle cx="163.662" cy="125.43" r="2.941" style="fill:rgb(215,221,223);"/>
                    </g>
                    <g transform="matrix(1,0,0,1,394.554,172.787)">
                        <circle cx="163.662" cy="125.43" r="2.941" style="fill:rgb(215,221,223);"/>
                    </g>
                    <g transform="matrix(1,0,0,1,459.554,172.787)">
                        <circle cx="163.662" cy="125.43" r="2.941" style="fill:rgb(215,221,223);"/>
                    </g>
                    <g transform="matrix(1,0,0,1,394.554,234.787)">
                        <circle cx="163.662" cy="125.43" r="2.941" style="fill:rgb(215,221,223);"/>
                    </g>
                    <g transform="matrix(1,0,0,1,459.554,234.787)">
                        <circle cx="163.662" cy="125.43" r="2.941" style="fill:rgb(215,221,223);"/>
                    </g>
                </g>
            </g>
        </g>
    </g>
</svg>
