<?xml version="1.0" encoding="UTF-8" standalone="no"?>
<!DOCTYPE svg PUBLIC "-//W3C//DTD SVG 1.1//EN" "http://www.w3.org/Graphics/SVG/1.1/DTD/svg11.dtd">
<svg width="100%" height="100%" viewBox="0 0 800 800" version="1.1" xmlns="http://www.w3.org/2000/svg" xmlns:xlink="http://www.w3.org/1999/xlink" xml:space="preserve" xmlns:serif="http://www.serif.com/" style="fill-rule:evenodd;clip-rule:evenodd;stroke-linejoin:round;stroke-miterlimit:2;">
    <g id="Capa-1" serif:id="Capa 1" transform="matrix(1.375,0,0,1.375,-27378.5,-37296.7)">
        <g id="path4162" transform="matrix(1.5,0,0,1.5,-9955.84,-13562.4)">
            <path d="M19911.7,27124.9L19911.7,27270.3L19948,27270.3L19948,27161.2L20057.1,27161.2L20057.1,27124.9L19911.7,27124.9Z" style="fill:rgb(210,221,221);fill-rule:nonzero;"/>
        </g>
        <g id="rect4134" transform="matrix(1.5,0,0,1.5,-10246.7,-13853.3)">
            <path d="M20457.1,27561.2L20457.1,27670.3L20348,27670.3L20348,27706.7L20493.5,27706.7L20493.5,27561.2L20457.1,27561.2Z" style="fill:rgb(210,221,221);fill-rule:nonzero;"/>
        </g>
        <g id="path4170" transform="matrix(1.5,0,0,1.5,-10246.7,-13562.4)">
            <path d="M20493.5,27124.9L20493.5,27270.3L20457.1,27270.3L20457.1,27161.2L20348,27161.2L20348,27124.9L20493.5,27124.9Z" style="fill:rgb(210,221,221);fill-rule:nonzero;"/>
        </g>
        <g id="path4172" transform="matrix(1.5,0,0,1.5,-9955.84,-13853.3)">
            <path d="M19948,27561.2L19948,27670.3L20057.1,27670.3L20057.1,27706.7L19911.7,27706.7L19911.7,27561.2L19948,27561.2Z" style="fill:rgb(210,221,221);fill-rule:nonzero;"/>
        </g>
    </g>
</svg>
