<?xml version="1.0" encoding="UTF-8" standalone="no"?>
<!DOCTYPE svg PUBLIC "-//W3C//DTD SVG 1.1//EN" "http://www.w3.org/Graphics/SVG/1.1/DTD/svg11.dtd">
<svg width="100%" height="100%" viewBox="0 0 800 800" version="1.1" xmlns="http://www.w3.org/2000/svg" xmlns:xlink="http://www.w3.org/1999/xlink" xml:space="preserve" xmlns:serif="http://www.serif.com/" style="fill-rule:evenodd;clip-rule:evenodd;stroke-linejoin:round;stroke-miterlimit:2;">
    <path d="M509.063,0C348.438,0 218.125,130.313 218.125,290.938C218.125,343.281 232.188,392.188 256.25,434.688L0,690.938L36.406,763.594L109.063,800L365.313,543.75C407.813,567.969 456.719,581.875 509.063,581.875C669.688,581.875 800,451.563 800,290.938C800,130.312 669.688,0 509.063,0ZM509.063,490.938C398.594,490.938 309.063,401.406 309.063,290.938C309.063,180.469 398.594,90.937 509.063,90.937C619.531,90.937 709.063,180.469 709.063,290.938C709.063,401.406 619.531,490.938 509.063,490.938ZM545.469,181.875L472.813,181.875L472.813,254.531L400,254.531L400,327.188L472.656,327.188L472.656,400L545.313,400L545.313,327.344L617.969,327.344L617.969,254.688L545.313,254.688L545.313,181.875L545.469,181.875Z" style="fill:white;fill-rule:nonzero;"/>
</svg>
